<svg xmlns="http://www.w3.org/2000/svg" xmlns:xlink="http://www.w3.org/1999/xlink" version="1.1" viewBox="145.29 176.28 709.94 709.94">
<defs>
<clipPath id="clip1">
  <path d="M 249 279 L 752 279 L 752 723 L 249 723 Z M 249 279 "/>
</clipPath>
<clipPath id="clip2">
  <path d="M 855.230469 531.25 L 500.261719 886.21875 L 145.292969 531.25 L 500.261719 176.28125 Z M 855.230469 531.25 "/>
</clipPath>
<clipPath id="clip3">
  <path d="M 855.230469 531.25 L 500.261719 886.21875 L 145.292969 531.25 L 500.261719 176.28125 Z M 855.230469 531.25 "/>
</clipPath>
</defs>
<g id="surface1">
<g clip-path="url(#clip1)" clip-rule="nonzero">
<g clip-path="url(#clip2)" clip-rule="nonzero">
<g clip-path="url(#clip3)" clip-rule="nonzero">
<path style=" stroke:none;fill-rule:nonzero;fill:rgb(57.254902%,81.568627%,31.372549%);fill-opacity:1;" d="M 322.792969 352.988281 C 325.699219 350.082031 328.675781 347.25 331.71875 344.488281 C 334.769531 341.730469 337.875 339.042969 341.0625 336.4375 C 344.238281 333.824219 347.480469 331.292969 350.78125 328.84375 C 354.082031 326.394531 357.449219 324.03125 360.863281 321.738281 C 364.28125 319.457031 367.761719 317.261719 371.28125 315.144531 C 374.8125 313.03125 378.386719 311 382.011719 309.0625 C 385.644531 307.125 389.3125 305.28125 393.03125 303.519531 C 396.75 301.761719 400.511719 300.09375 404.300781 298.519531 C 408.105469 296.949219 411.9375 295.46875 415.8125 294.082031 C 419.6875 292.699219 423.582031 291.40625 427.519531 290.21875 C 431.457031 289.019531 435.417969 287.925781 439.40625 286.925781 C 443.394531 285.925781 447.40625 285.03125 451.4375 284.230469 C 455.480469 283.425781 459.519531 282.71875 463.59375 282.113281 C 467.65625 281.511719 471.738281 281.011719 475.832031 280.605469 C 479.925781 280.207031 484.019531 279.90625 488.136719 279.699219 C 492.238281 279.5 496.355469 279.394531 500.457031 279.394531 C 504.574219 279.394531 508.6875 279.5 512.792969 279.699219 C 516.894531 279.90625 521 280.207031 525.09375 280.605469 C 529.1875 281.011719 533.261719 281.511719 537.332031 282.113281 C 541.394531 282.71875 545.449219 283.425781 549.480469 284.230469 C 553.511719 285.03125 557.53125 285.925781 561.511719 286.925781 C 565.5 287.925781 569.46875 289.019531 573.40625 290.21875 C 577.332031 291.40625 581.238281 292.699219 585.113281 294.082031 C 588.980469 295.46875 592.824219 296.949219 596.613281 298.519531 C 600.417969 300.09375 604.175781 301.761719 607.894531 303.519531 C 611.613281 305.28125 615.28125 307.125 618.90625 309.0625 C 622.53125 311 626.113281 313.03125 629.636719 315.144531 C 633.167969 317.261719 636.644531 319.457031 640.0625 321.738281 C 643.480469 324.03125 646.84375 326.394531 650.144531 328.84375 C 653.449219 331.292969 656.6875 333.824219 659.863281 336.4375 C 663.042969 339.042969 666.15625 341.730469 669.207031 344.488281 C 672.25 347.25 675.230469 350.082031 678.136719 352.988281 C 681.042969 355.894531 683.875 358.875 686.636719 361.925781 C 689.40625 364.96875 692.082031 368.082031 694.699219 371.261719 C 697.300781 374.4375 699.832031 377.675781 702.28125 380.988281 C 704.730469 384.292969 707.105469 387.644531 709.386719 391.074219 C 711.667969 394.488281 713.863281 397.957031 715.980469 401.488281 C 718.09375 405.011719 720.125 408.59375 722.0625 412.21875 C 724 415.84375 725.84375 419.519531 727.605469 423.238281 C 729.363281 426.949219 731.03125 430.707031 732.605469 434.511719 C 734.175781 438.3125 735.65625 442.144531 737.042969 446.019531 C 738.425781 449.886719 739.71875 453.792969 740.917969 457.730469 C 742.105469 461.667969 743.199219 465.625 744.199219 469.613281 C 745.199219 473.605469 746.105469 477.613281 746.90625 481.644531 C 747.707031 485.675781 748.40625 489.730469 749.011719 493.800781 C 749.613281 497.863281 750.113281 501.949219 750.519531 506.042969 C 750.925781 510.125 751.230469 514.230469 751.425781 518.332031 C 751.636719 522.449219 751.730469 526.550781 751.730469 530.667969 C 751.730469 534.78125 751.636719 538.886719 751.425781 543 C 751.230469 547.105469 750.925781 551.199219 750.519531 555.292969 C 750.113281 559.386719 749.613281 563.46875 749.011719 567.53125 C 748.40625 571.605469 747.707031 575.65625 746.90625 579.6875 C 746.105469 583.71875 745.199219 587.730469 744.199219 591.71875 C 743.199219 595.707031 742.105469 599.667969 740.917969 603.605469 C 739.71875 607.542969 738.425781 611.449219 737.042969 615.3125 C 735.65625 619.1875 734.175781 623.019531 732.605469 626.824219 C 731.03125 630.625 729.363281 634.386719 727.605469 638.09375 C 725.84375 641.8125 724 645.488281 722.0625 649.113281 C 720.125 652.738281 718.09375 656.3125 715.980469 659.84375 C 713.863281 663.375 711.667969 666.84375 709.386719 670.261719 C 707.105469 673.6875 704.730469 677.042969 702.28125 680.34375 C 699.832031 683.644531 697.300781 686.894531 694.699219 690.074219 C 692.082031 693.25 689.40625 696.363281 686.636719 699.40625 C 683.875 702.457031 681.042969 705.4375 678.136719 708.34375 L 663.613281 722.863281 L 634.5625 693.824219 L 649.09375 679.292969 C 651.519531 676.863281 653.894531 674.375 656.207031 671.824219 C 658.511719 669.269531 660.761719 666.667969 662.949219 664.011719 C 665.125 661.355469 667.238281 658.644531 669.292969 655.875 C 671.34375 653.113281 673.324219 650.300781 675.230469 647.449219 C 677.144531 644.582031 678.980469 641.675781 680.75 638.730469 C 682.519531 635.78125 684.21875 632.78125 685.832031 629.75 C 687.457031 626.71875 689 623.644531 690.46875 620.53125 C 691.949219 617.425781 693.332031 614.28125 694.65625 611.105469 C 695.96875 607.925781 697.207031 604.71875 698.363281 601.480469 C 699.53125 598.238281 700.605469 594.96875 701.605469 591.675781 C 702.605469 588.386719 703.519531 585.074219 704.355469 581.738281 C 705.1875 578.40625 705.949219 575.042969 706.613281 571.675781 C 707.292969 568.300781 707.875 564.90625 708.375 561.511719 C 708.886719 558.105469 709.300781 554.6875 709.644531 551.269531 C 709.980469 547.84375 710.230469 544.417969 710.40625 540.980469 C 710.574219 537.542969 710.65625 534.105469 710.65625 530.667969 C 710.65625 527.230469 710.574219 523.792969 710.40625 520.355469 C 710.230469 516.917969 709.980469 513.488281 709.644531 510.0625 C 709.300781 506.636719 708.886719 503.230469 708.375 499.824219 C 707.875 496.425781 707.292969 493.03125 706.613281 489.65625 C 705.949219 486.28125 705.1875 482.925781 704.355469 479.59375 C 703.519531 476.261719 702.605469 472.9375 701.605469 469.644531 C 700.605469 466.355469 699.53125 463.09375 698.363281 459.855469 C 697.207031 456.613281 695.96875 453.40625 694.65625 450.230469 C 693.332031 447.050781 691.949219 443.90625 690.46875 440.800781 C 689 437.6875 687.457031 434.613281 685.832031 431.582031 C 684.21875 428.550781 682.519531 425.550781 680.75 422.605469 C 678.980469 419.65625 677.144531 416.75 675.230469 413.886719 C 673.324219 411.03125 671.34375 408.21875 669.292969 405.457031 C 667.238281 402.6875 665.125 399.980469 662.949219 397.324219 C 660.761719 394.667969 658.511719 392.0625 656.207031 389.511719 C 653.894531 386.957031 651.519531 384.46875 649.09375 382.042969 C 646.65625 379.605469 644.167969 377.230469 641.613281 374.925781 C 639.074219 372.613281 636.46875 370.363281 633.800781 368.1875 C 631.144531 366 628.4375 363.886719 625.675781 361.832031 C 622.90625 359.792969 620.09375 357.8125 617.238281 355.894531 C 614.375 353.988281 611.46875 352.144531 608.519531 350.375 C 605.574219 348.613281 602.582031 346.917969 599.542969 345.292969 C 596.511719 343.667969 593.4375 342.125 590.332031 340.65625 C 587.21875 339.1875 584.074219 337.792969 580.894531 336.480469 C 577.71875 335.15625 574.511719 333.917969 571.269531 332.761719 C 568.03125 331.605469 564.769531 330.519531 561.480469 329.519531 C 558.1875 328.53125 554.875 327.605469 551.53125 326.769531 C 548.199219 325.9375 544.84375 325.1875 541.46875 324.511719 C 538.09375 323.84375 534.707031 323.25 531.300781 322.75 C 527.894531 322.238281 524.488281 321.824219 521.0625 321.488281 C 517.644531 321.144531 514.207031 320.894531 510.769531 320.730469 C 507.34375 320.5625 503.90625 320.480469 500.457031 320.480469 C 497.019531 320.480469 493.582031 320.5625 490.144531 320.730469 C 486.707031 320.894531 483.28125 321.144531 479.863281 321.488281 C 476.4375 321.824219 473.019531 322.238281 469.625 322.75 C 466.21875 323.25 462.832031 323.84375 459.457031 324.511719 C 456.082031 325.1875 452.730469 325.9375 449.386719 326.769531 C 446.050781 327.605469 442.738281 328.53125 439.449219 329.519531 C 436.15625 330.519531 432.886719 331.605469 429.644531 332.761719 C 426.417969 333.917969 423.199219 335.15625 420.019531 336.480469 C 416.84375 337.792969 413.699219 339.1875 410.59375 340.65625 C 407.480469 342.125 404.417969 343.667969 401.375 345.292969 C 398.34375 346.917969 395.355469 348.613281 392.40625 350.375 C 389.449219 352.144531 386.542969 353.988281 383.6875 355.894531 C 380.824219 357.8125 378.011719 359.792969 375.25 361.832031 C 372.488281 363.886719 369.78125 366 367.113281 368.1875 C 364.457031 370.363281 361.855469 372.613281 359.300781 374.925781 C 356.761719 377.230469 354.269531 379.605469 351.832031 382.042969 C 349.40625 384.46875 347.03125 386.957031 344.71875 389.511719 C 342.40625 392.0625 340.167969 394.667969 337.980469 397.324219 C 335.800781 399.980469 333.6875 402.6875 331.636719 405.457031 C 329.582031 408.21875 327.605469 411.03125 325.699219 413.886719 C 323.78125 416.75 321.9375 419.65625 320.175781 422.605469 C 318.40625 425.550781 316.707031 428.550781 315.09375 431.582031 C 313.46875 434.613281 311.917969 437.6875 310.449219 440.800781 C 308.980469 443.90625 307.582031 447.050781 306.269531 450.230469 C 304.957031 453.40625 303.71875 456.613281 302.550781 459.855469 C 301.394531 463.09375 300.324219 466.355469 299.324219 469.644531 C 298.324219 472.9375 297.40625 476.261719 296.574219 479.59375 C 295.730469 482.925781 294.980469 486.28125 294.3125 489.65625 C 293.636719 493.03125 293.050781 496.425781 292.542969 499.824219 C 292.042969 503.230469 291.613281 506.636719 291.28125 510.0625 C 290.949219 513.488281 290.6875 516.917969 290.519531 520.355469 C 290.355469 523.792969 290.269531 527.230469 290.269531 530.667969 C 290.269531 534.105469 290.355469 537.542969 290.519531 540.980469 C 290.6875 544.417969 290.949219 547.84375 291.28125 551.269531 C 291.613281 554.6875 292.042969 558.105469 292.542969 561.511719 C 293.050781 564.90625 293.636719 568.300781 294.3125 571.675781 C 294.980469 575.042969 295.730469 578.40625 296.574219 581.738281 C 297.40625 585.074219 298.324219 588.386719 299.324219 591.675781 C 300.324219 594.96875 301.394531 598.238281 302.550781 601.480469 C 303.71875 604.71875 304.957031 607.925781 306.269531 611.105469 C 307.582031 614.28125 308.980469 617.425781 310.449219 620.53125 C 311.917969 623.644531 313.46875 626.71875 315.09375 629.75 C 316.707031 632.78125 318.40625 635.78125 320.175781 638.730469 C 321.9375 641.675781 323.78125 644.582031 325.699219 647.449219 C 327.605469 650.300781 329.582031 653.113281 331.636719 655.875 C 333.6875 658.644531 335.800781 661.355469 337.980469 664.011719 C 340.167969 666.667969 342.40625 669.269531 344.71875 671.824219 C 347.03125 674.375 349.40625 676.863281 351.832031 679.292969 L 366.355469 693.824219 L 337.3125 722.863281 L 322.792969 708.34375 C 319.886719 705.425781 317.050781 702.449219 314.292969 699.40625 C 311.542969 696.355469 308.855469 693.238281 306.25 690.0625 C 303.644531 686.875 301.125 683.636719 298.675781 680.332031 C 296.230469 677.03125 293.863281 673.667969 291.582031 670.238281 C 289.300781 666.824219 287.113281 663.355469 285 659.824219 C 282.886719 656.292969 280.863281 652.71875 278.925781 649.09375 C 277 645.46875 275.144531 641.792969 273.394531 638.074219 C 271.636719 634.355469 269.980469 630.605469 268.40625 626.800781 C 266.832031 623 265.355469 619.167969 263.980469 615.292969 C 262.59375 611.425781 261.300781 607.519531 260.113281 603.582031 C 258.917969 599.65625 257.824219 595.6875 256.832031 591.699219 C 255.832031 587.71875 254.925781 583.707031 254.136719 579.675781 C 253.332031 575.636719 252.625 571.59375 252.03125 567.519531 C 251.425781 563.457031 250.917969 559.375 250.519531 555.292969 C 250.113281 551.199219 249.8125 547.09375 249.613281 542.988281 C 249.417969 538.886719 249.3125 534.78125 249.3125 530.667969 C 249.3125 526.550781 249.417969 522.449219 249.613281 518.34375 C 249.8125 514.238281 250.113281 510.136719 250.519531 506.042969 C 250.917969 501.957031 251.425781 497.875 252.03125 493.8125 C 252.625 489.738281 253.332031 485.6875 254.136719 481.65625 C 254.925781 477.625 255.832031 473.613281 256.832031 469.625 C 257.824219 465.644531 258.917969 461.675781 260.113281 457.75 C 261.300781 453.8125 262.59375 449.90625 263.96875 446.042969 C 265.355469 442.167969 266.832031 438.332031 268.40625 434.53125 C 269.980469 430.730469 271.636719 426.980469 273.394531 423.261719 C 275.144531 419.542969 277 415.863281 278.925781 412.238281 C 280.863281 408.613281 282.886719 405.042969 285 401.511719 C 287.113281 397.980469 289.300781 394.511719 291.582031 391.082031 C 293.863281 387.667969 296.230469 384.300781 298.675781 381 C 301.125 377.699219 303.644531 374.457031 306.25 371.269531 C 308.855469 368.09375 311.542969 364.980469 314.292969 361.925781 C 317.050781 358.886719 319.886719 355.90625 322.792969 352.988281 Z M 322.792969 352.988281 "/>
</g>
</g>
</g>
<path style=" stroke:none;fill-rule:nonzero;fill:rgb(57.254902%,81.568627%,31.372549%);fill-opacity:1;" d="M 403.191406 383.789062 L 328.191406 643.519531 L 366.609375 643.519531 L 383.640625 580.226562 L 475.777344 580.226562 L 492.816406 643.519531 L 531.222656 643.519531 L 456.234375 383.789062 Z M 466.421875 545.476562 L 393.003906 545.476562 L 428.066406 415.25 L 431.359375 415.25 Z M 466.421875 545.476562 "/>
<path style=" stroke:none;fill-rule:nonzero;fill:rgb(57.254902%,81.568627%,31.372549%);fill-opacity:1;" d="M 566.683594 410.945312 C 571.988281 416.25 578.363281 418.90625 585.800781 418.90625 C 593.363281 418.90625 599.757812 416.25 605.007812 410.945312 C 610.246094 405.644531 612.871094 399.269531 612.871094 391.832031 C 612.871094 384.28125 610.246094 377.875 605.007812 372.632812 C 599.757812 367.382812 593.363281 364.769531 585.800781 364.769531 C 578.363281 364.769531 571.988281 367.382812 566.683594 372.632812 C 561.382812 377.875 558.726562 384.28125 558.726562 391.832031 C 558.726562 399.269531 561.382812 405.644531 566.683594 410.945312 Z M 504.769531 449.632812 L 504.769531 481.457031 L 567.683594 481.457031 L 567.683594 611.695312 L 493.789062 611.695312 L 493.789062 643.519531 L 666.089844 643.519531 L 666.089844 611.695312 L 606.464844 611.695312 L 606.464844 449.632812 Z M 504.769531 449.632812 "/>
<path style=" stroke:none;fill-rule:nonzero;fill:rgb(57.254902%,81.568627%,31.372549%);fill-opacity:1;" d="M 382.230469 687.300781 L 382.230469 761.300781 L 400.15625 761.300781 C 422.738281 761.300781 434.03125 749.3125 434.03125 725.34375 C 434.03125 699.988281 422.738281 687.300781 400.15625 687.300781 Z M 392.65625 697.207031 L 400.15625 697.207031 C 407.769531 697.207031 413.488281 699.539062 417.332031 704.21875 C 421.167969 708.882812 423.082031 715.925781 423.082031 725.34375 C 423.082031 734.03125 421.167969 740.539062 417.332031 744.882812 C 413.488281 749.226562 407.769531 751.40625 400.15625 751.40625 L 392.65625 751.40625 Z M 392.65625 697.207031 "/>
<path style=" stroke:none;fill-rule:nonzero;fill:rgb(57.254902%,81.568627%,31.372549%);fill-opacity:1;" d="M 441.425781 724.820312 C 441.425781 749.832031 450.53125 762.34375 468.726562 762.34375 C 486.9375 762.34375 496.039062 749.832031 496.039062 724.820312 C 496.039062 699.113281 486.9375 686.257812 468.726562 686.257812 C 450.53125 686.257812 441.425781 699.113281 441.425781 724.820312 Z M 485.09375 724.820312 C 485.09375 743.445312 479.644531 752.757812 468.726562 752.757812 C 457.820312 752.757812 452.375 743.445312 452.375 724.820312 C 452.375 705.507812 457.820312 695.851562 468.726562 695.851562 C 479.644531 695.851562 485.09375 705.507812 485.09375 724.820312 Z M 485.09375 724.820312 "/>
<path style=" stroke:none;fill-rule:nonzero;fill:rgb(57.254902%,81.568627%,31.372549%);fill-opacity:1;" d="M 504.476562 724.195312 C 504.476562 749.625 515.976562 762.34375 538.976562 762.34375 C 545.644531 762.34375 552 761.164062 558.050781 758.800781 L 555.65625 749.625 C 550.75 751.71875 545.789062 752.757812 540.75 752.757812 C 524 752.757812 515.632812 743.0625 515.632812 723.675781 C 515.632812 714.78125 517.65625 707.925781 521.707031 703.09375 C 525.75 698.269531 531.125 695.851562 537.832031 695.851562 C 540.644531 695.851562 543.257812 696.5 545.675781 697.78125 C 548.082031 699.0625 550.070312 700.882812 551.632812 703.25 L 559.351562 695.59375 C 557.613281 692.601562 554.851562 690.300781 551.0625 688.6875 C 547.28125 687.070312 542.832031 686.257812 537.726562 686.257812 C 527.164062 686.257812 518.988281 689.570312 513.1875 696.1875 C 507.382812 702.8125 504.476562 712.144531 504.476562 724.195312 Z M 504.476562 724.195312 "/>
<path style=" stroke:none;fill-rule:nonzero;fill:rgb(57.254902%,81.568627%,31.372549%);fill-opacity:1;" d="M 579.433594 761.332031 C 583.101562 762.007812 587.039062 762.34375 591.238281 762.34375 C 600.101562 762.34375 606.707031 760.664062 611.070312 757.3125 C 615.425781 753.957031 617.613281 748.9375 617.613281 742.226562 C 617.613281 737.15625 616.183594 733.007812 613.332031 729.769531 C 610.488281 726.539062 606.320312 723.644531 600.832031 721.070312 L 589.988281 715.96875 C 587.488281 714.78125 585.589844 713.4375 584.308594 711.925781 C 583.027344 710.414062 582.382812 708.457031 582.382812 706.0625 C 582.382812 702.695312 583.363281 700.15625 585.332031 698.425781 C 587.289062 696.707031 590.058594 695.851562 593.632812 695.851562 C 596.519531 695.851562 599.289062 696.414062 601.945312 697.539062 C 604.613281 698.675781 607.464844 700.488281 610.519531 702.988281 L 617.820312 695.59375 C 614.269531 692.289062 610.589844 689.914062 606.769531 688.457031 C 602.945312 686.988281 598.550781 686.257812 593.582031 686.257812 C 586.464844 686.257812 580.957031 688.03125 577.070312 691.582031 C 573.175781 695.125 571.226562 700.125 571.226562 706.582031 C 571.226562 711.382812 572.582031 715.394531 575.269531 718.625 C 577.964844 721.851562 581.832031 724.613281 586.863281 726.90625 L 599.683594 732.75 C 604.195312 734.789062 606.457031 738.03125 606.457031 742.4375 C 606.457031 745.914062 605.277344 748.5 602.914062 750.195312 C 600.550781 751.90625 596.933594 752.757812 592.070312 752.757812 C 588.707031 752.757812 585.238281 752.332031 581.675781 751.476562 C 578.121094 750.625 574.425781 749.382812 570.601562 747.75 L 569.246094 758.28125 C 572.371094 759.632812 575.769531 760.644531 579.433594 761.332031 Z M 579.433594 761.332031 "/>
</g>
</svg>