<svg viewBox="0 0 512 512" xmlns="http://www.w3.org/2000/svg">
<rect width="512" height="512" fill="#FFDC00"/>
<rect width="512" height="512" fill="#FFDC00"/>
<path d="M232 467.002H237V444H252V439.002H237V424H254V419.002H232V467.002Z" fill="#1D1C1C"/>
<path d="M279.066 442.996C279.066 456.748 288.579 467 302 467C315.488 467 325 456.62 325 443C325 429.512 315.554 418.996 302.066 418.996C288.645 418.996 279.066 429.376 279.066 442.996ZM284.017 443C284.017 432.157 291.818 423.996 302.066 423.996C312.314 423.996 320 432.157 320 443C320 453.975 312.248 462 302 462C291.752 462 284.017 453.975 284.017 443Z" fill="#1D1C1C"/>
<path d="M351 443C351 456.752 360.579 467 374 467C387.488 467 397 456.62 397 443C397 429.512 387.488 419 374 419C360.579 419 351 429.38 351 443ZM356.017 443C356.017 432.157 363.752 424 374 424C384.248 424 392 432.157 392 443C392 453.975 384.248 462 374 462C363.752 462 356.017 453.975 356.017 443Z" fill="#1D1C1C"/>
<path d="M426 467.002H436C451.471 467.002 460 458.341 460 443.002C460 428.523 451.802 419.002 436 419.002H426V467.002ZM432 462V423.969H437C448.107 423.969 455 431.432 455 443.002C455 455.102 448.107 462 437 462H432Z" fill="#1D1C1C"/>
<path d="M156 387H233V380.5L224.914 378.919C217.598 377.303 216 376.084 216 362V317C217.5 317 226.376 317 228.5 317C237.232 338.703 253.235 369.222 266.451 387H319V380.5L315.068 379.381C310.348 377.996 308.596 376.963 306 373.5C293.02 356.415 276.676 329.548 267 309L267.395 307.808C289.344 301.343 299 289.356 299 269.5C299 241.563 280.139 227 233.41 227H156V233.465L164.024 235.081C171.104 236.697 173 237.916 173 252V362.065C173 376.149 171.104 377.303 164.024 378.919L156 380.535V387ZM227.038 308.039C221.138 308.039 217.054 308.039 216 308.039V238.755C218.596 237.831 224.206 237.159 231.522 237.159C249.93 237.159 256 245.949 256 272.5C256 299.513 247.098 308.039 227.038 308.039Z" fill="#1D1C1C"/>
<path d="M325.004 387H372V381L367.486 379.843C361.585 378.688 359.461 376.841 359.461 373.147C359.461 369.684 361.113 365.528 365.598 358.371L378.106 338.053H378.814L394.39 360.68C398.402 366.683 400.526 370.377 400.526 373.609C400.526 376.841 398.638 378.919 394.154 379.843L388.726 380.766V387H460V380.766L456.932 380.074C449.38 377.765 447.964 375.225 439.231 363.219L409.967 322.354L429.319 293.032C437.107 281.026 442.536 276.177 449.38 274.561L454 273V267H407V273L412.799 274.33C417.755 275.716 420.115 277.563 420.115 281.257C420.115 284.489 418.935 288.414 415.159 295.11L404.303 314.042H403.594L388.49 291.877C385.186 286.798 383.77 283.566 383.77 280.795C383.77 277.332 386.602 275.254 390.85 274.33L396 273V267H325V273L327.837 274.1C333.737 275.716 335.861 277.563 345.301 290.723L372.678 329.973L349.549 362.296C341.289 373.84 337.513 377.765 330.197 379.612L325.004 380.766V387Z" fill="#1D1C1C"/>
<path d="M478 429L473 419H475L478.5 426L482 419H484L479 429L478 429ZM473 429V419H475V429H473ZM482 429V419H484V429H482ZM467 429V420H469V429H467ZM464 421V419H472V421H464Z" fill="#1D1C1C"/>
</svg>
