<?xml version="1.0" encoding="utf-8"?>
<!-- Generator: Adobe Illustrator 19.0.0, SVG Export Plug-In . SVG Version: 6.00 Build 0)  -->
<svg version="1.1" id="layer" xmlns="http://www.w3.org/2000/svg" xmlns:xlink="http://www.w3.org/1999/xlink" x="0px" y="0px"
	 viewBox="-153 -46 652 652" style="enable-background:new -153 -46 652 652;" xml:space="preserve">
<style type="text/css">
	.st0{fill:#DA2128;}
	.st1{fill:#015347;}
</style>
<path class="st0" d="M332.8,233.5c0-12-9.8-21.8-21.8-21.8s-21.8,9.8-21.8,21.8c0,12,9.8,21.8,21.8,21.8
	C323.1,255.3,332.8,245.5,332.8,233.5z"/>
<path class="st1" d="M-11.3,182.1l-43.6,102.1l20.4,0.1l12.1-28.2h36.9l12.8,28.2h20.4L2.3,182.2L-11.3,182.1L-11.3,182.1z
	 M-14.6,237.9l10-24.3l10.9,24.3H-14.6L-14.6,237.9z M130.2,252l-60.6-69.2H54.5v101.5h18.8v-68.8l59.7,68.8h16V182.8h-18.8
	L130.2,252L130.2,252z M194,182.8h-28.4v101.5h28.6c40.1,0,53.7-26.2,53.7-50.7C247.9,209.1,231,182.8,194,182.8L194,182.8z
	 M192.5,266.1h-7.3V201h6.6c22.6,0,36.1,12.2,36.1,32.6C227.9,245.6,220.4,266.1,192.5,266.1L192.5,266.1z M423.5,231.8l42.5-49.1
	h-24.1l-30.4,34.8l-28.6-34.8h-24.3l40.7,49.1l-43.7,52.4h24.3l31.6-37.9l33.1,37.9h24.1L423.5,231.8z M311,181.5
	c-28.7,0-52,23.3-52,52s23.3,52,52,52c28.8,0,52-23.3,52-52S339.8,181.5,311,181.5z M311,267.1c-18.5,0-33.5-15-33.5-33.5
	s15-33.5,33.5-33.5s33.5,15,33.5,33.5C344.6,252,329.6,267.1,311,267.1z M-85.6,238.1c5.6-2.9,10.8-6.9,13.2-10.3
	c3.2-4.6,4.9-10,4.9-16.2c0-9.1-3.3-16.4-10-21.8c-6.5-5.2-15.2-7.9-25.9-7.9h-27.9v101.6h20.1V242h0.9v-0.1
	c0.9-0.1,2.2-0.1,3.3-0.2c0.5,0,0.9-0.1,1.4-0.1l25.5,42.3h23.4L-85.6,238.1z M-111.2,224v-24.4h1.4c6.6,0,11.4,0.5,14.1,1.4
	c2.4,0.8,4.3,2.1,5.5,4c1.3,2,2,4.1,2,6.6c0,2.5-0.6,4.7-1.8,6.6c-1.2,1.9-2.8,3.3-5,4.3c-1.6,0.7-5.3,1.6-13.7,1.6L-111.2,224
	L-111.2,224z"/>
<path class="st1" d="M152.1,338.2l-5.8-13l-5.4,13H152.1z"/>
<path class="st1" d="M-131.3,303.1v65.5h600v-65.5H-131.3z M64.2,356.1h-6.6v-17.5H35.9v17.5h-6.6v-41h6.6v17.4h21.7v-17.4h6.6
	V356.1z M111.1,356.1H86.9v-41h23.6v6h-17v11.4H110v6H93.5v11.6h17.6L111.1,356.1L111.1,356.1z M160.3,356.1l-5.4-11.9h-16.6
	l-5,11.9h-6.9l17.6-41.3h4.6l18.4,41.3H160.3z M209.8,356.1h-24.7v-41h6.6V350h18.1V356.1z M253.8,321h-14v35.1h-6.6V321h-13.8v-6
	h34.4L253.8,321L253.8,321z M308,356.1h-6.6v-17.5h-21.7v17.5h-6.6v-41h6.6v17.4h21.7v-17.4h6.6V356.1z"/>
</svg>
